<svg width="1363" height="163" viewBox="0 0 1363 163" fill="none" xmlns="http://www.w3.org/2000/svg">
<path d="M0 15C0 6.71573 6.71573 0 15 0H37V163H15C6.71573 163 0 156.284 0 148V15Z" fill="#424242"/>
<rect width="1097" height="163" transform="translate(37)" fill="#F0F0F0"/>
<path d="M105.973 58.2578V61H96.8906V58.2578H105.973ZM98.0391 43.9375V61H94.5234V43.9375H98.0391ZM104.789 50.8867V53.5586H96.8906V50.8867H104.789ZM105.961 43.9375V46.6914H96.8906V43.9375H105.961ZM114.656 58.1406V52.4922C114.656 52.0859 114.59 51.7383 114.457 51.4492C114.324 51.1523 114.117 50.9219 113.836 50.7578C113.562 50.5938 113.207 50.5117 112.77 50.5117C112.395 50.5117 112.07 50.5781 111.797 50.7109C111.523 50.8359 111.312 51.0195 111.164 51.2617C111.016 51.4961 110.941 51.7734 110.941 52.0938H107.566C107.566 51.5547 107.691 51.043 107.941 50.5586C108.191 50.0742 108.555 49.6484 109.031 49.2812C109.508 48.9062 110.074 48.6133 110.73 48.4023C111.395 48.1914 112.137 48.0859 112.957 48.0859C113.941 48.0859 114.816 48.25 115.582 48.5781C116.348 48.9062 116.949 49.3984 117.387 50.0547C117.832 50.7109 118.055 51.5312 118.055 52.5156V57.9414C118.055 58.6367 118.098 59.207 118.184 59.6523C118.27 60.0898 118.395 60.4727 118.559 60.8008V61H115.148C114.984 60.6562 114.859 60.2266 114.773 59.7109C114.695 59.1875 114.656 58.6641 114.656 58.1406ZM115.102 53.2773L115.125 55.1875H113.238C112.793 55.1875 112.406 55.2383 112.078 55.3398C111.75 55.4414 111.48 55.5859 111.27 55.7734C111.059 55.9531 110.902 56.1641 110.801 56.4062C110.707 56.6484 110.66 56.9141 110.66 57.2031C110.66 57.4922 110.727 57.7539 110.859 57.9883C110.992 58.2148 111.184 58.3945 111.434 58.5273C111.684 58.6523 111.977 58.7148 112.312 58.7148C112.82 58.7148 113.262 58.6133 113.637 58.4102C114.012 58.207 114.301 57.957 114.504 57.6602C114.715 57.3633 114.824 57.082 114.832 56.8164L115.723 58.2461C115.598 58.5664 115.426 58.8984 115.207 59.2422C114.996 59.5859 114.727 59.9102 114.398 60.2148C114.07 60.5117 113.676 60.7578 113.215 60.9531C112.754 61.1406 112.207 61.2344 111.574 61.2344C110.77 61.2344 110.039 61.0742 109.383 60.7539C108.734 60.4258 108.219 59.9766 107.836 59.4062C107.461 58.8281 107.273 58.1719 107.273 57.4375C107.273 56.7734 107.398 56.1836 107.648 55.668C107.898 55.1523 108.266 54.7188 108.75 54.3672C109.242 54.0078 109.855 53.7383 110.59 53.5586C111.324 53.3711 112.176 53.2773 113.145 53.2773H115.102ZM126.867 48.3203V50.7109H119.484V48.3203H126.867ZM121.312 45.1914H124.688V57.1797C124.688 57.5469 124.734 57.8281 124.828 58.0234C124.93 58.2188 125.078 58.3555 125.273 58.4336C125.469 58.5039 125.715 58.5391 126.012 58.5391C126.223 58.5391 126.41 58.5312 126.574 58.5156C126.746 58.4922 126.891 58.4688 127.008 58.4453L127.02 60.9297C126.73 61.0234 126.418 61.0977 126.082 61.1523C125.746 61.207 125.375 61.2344 124.969 61.2344C124.227 61.2344 123.578 61.1133 123.023 60.8711C122.477 60.6211 122.055 60.2227 121.758 59.6758C121.461 59.1289 121.312 58.4102 121.312 57.5195V45.1914ZM135.445 52.3516V55H128.824V52.3516H135.445ZM152.355 43.9375V61H148.84L141.984 49.5625V61H138.469V43.9375H141.984L148.852 55.3867V43.9375H152.355ZM161.859 52.3516V55H155.238V52.3516H161.859ZM173.766 56.5352C173.766 56.2305 173.719 55.957 173.625 55.7148C173.539 55.4648 173.375 55.2383 173.133 55.0352C172.891 54.8242 172.551 54.6172 172.113 54.4141C171.676 54.2109 171.109 54 170.414 53.7812C169.641 53.5312 168.906 53.25 168.211 52.9375C167.523 52.625 166.914 52.2617 166.383 51.8477C165.859 51.4258 165.445 50.9375 165.141 50.3828C164.844 49.8281 164.695 49.1836 164.695 48.4492C164.695 47.7383 164.852 47.0938 165.164 46.5156C165.477 45.9297 165.914 45.4297 166.477 45.0156C167.039 44.5938 167.703 44.2695 168.469 44.043C169.242 43.8164 170.09 43.7031 171.012 43.7031C172.27 43.7031 173.367 43.9297 174.305 44.3828C175.242 44.8359 175.969 45.457 176.484 46.2461C177.008 47.0352 177.27 47.9375 177.27 48.9531H173.777C173.777 48.4531 173.672 48.0156 173.461 47.6406C173.258 47.2578 172.945 46.957 172.523 46.7383C172.109 46.5195 171.586 46.4102 170.953 46.4102C170.344 46.4102 169.836 46.5039 169.43 46.6914C169.023 46.8711 168.719 47.1172 168.516 47.4297C168.312 47.7344 168.211 48.0781 168.211 48.4609C168.211 48.75 168.281 49.0117 168.422 49.2461C168.57 49.4805 168.789 49.6992 169.078 49.9023C169.367 50.1055 169.723 50.2969 170.145 50.4766C170.566 50.6562 171.055 50.832 171.609 51.0039C172.539 51.2852 173.355 51.6016 174.059 51.9531C174.77 52.3047 175.363 52.6992 175.84 53.1367C176.316 53.5742 176.676 54.0703 176.918 54.625C177.16 55.1797 177.281 55.8086 177.281 56.5117C177.281 57.2539 177.137 57.918 176.848 58.5039C176.559 59.0898 176.141 59.5859 175.594 59.9922C175.047 60.3984 174.395 60.707 173.637 60.918C172.879 61.1289 172.031 61.2344 171.094 61.2344C170.25 61.2344 169.418 61.125 168.598 60.9062C167.777 60.6797 167.031 60.3398 166.359 59.8867C165.695 59.4336 165.164 58.8555 164.766 58.1523C164.367 57.4492 164.168 56.6172 164.168 55.6562H167.695C167.695 56.1875 167.777 56.6367 167.941 57.0039C168.105 57.3711 168.336 57.668 168.633 57.8945C168.938 58.1211 169.297 58.2852 169.711 58.3867C170.133 58.4883 170.594 58.5391 171.094 58.5391C171.703 58.5391 172.203 58.4531 172.594 58.2812C172.992 58.1094 173.285 57.8711 173.473 57.5664C173.668 57.2617 173.766 56.918 173.766 56.5352ZM182.836 50.7578V65.875H179.461V48.3203H182.59L182.836 50.7578ZM190.863 54.5195V54.7656C190.863 55.6875 190.754 56.543 190.535 57.332C190.324 58.1211 190.012 58.8086 189.598 59.3945C189.184 59.9727 188.668 60.4258 188.051 60.7539C187.441 61.0742 186.738 61.2344 185.941 61.2344C185.168 61.2344 184.496 61.0781 183.926 60.7656C183.355 60.4531 182.875 60.0156 182.484 59.4531C182.102 58.8828 181.793 58.2227 181.559 57.4727C181.324 56.7227 181.145 55.918 181.02 55.0586V54.4141C181.145 53.4922 181.324 52.6484 181.559 51.8828C181.793 51.1094 182.102 50.4414 182.484 49.8789C182.875 49.3086 183.352 48.8672 183.914 48.5547C184.484 48.2422 185.152 48.0859 185.918 48.0859C186.723 48.0859 187.43 48.2383 188.039 48.543C188.656 48.8477 189.172 49.2852 189.586 49.8555C190.008 50.4258 190.324 51.1055 190.535 51.8945C190.754 52.6836 190.863 53.5586 190.863 54.5195ZM187.477 54.7656V54.5195C187.477 53.9805 187.43 53.4844 187.336 53.0312C187.25 52.5703 187.109 52.168 186.914 51.8242C186.727 51.4805 186.477 51.2148 186.164 51.0273C185.859 50.832 185.488 50.7344 185.051 50.7344C184.59 50.7344 184.195 50.8086 183.867 50.957C183.547 51.1055 183.285 51.3203 183.082 51.6016C182.879 51.8828 182.727 52.2188 182.625 52.6094C182.523 53 182.461 53.4414 182.438 53.9336V55.5625C182.477 56.1406 182.586 56.6602 182.766 57.1211C182.945 57.5742 183.223 57.9336 183.598 58.1992C183.973 58.4648 184.465 58.5977 185.074 58.5977C185.52 58.5977 185.895 58.5 186.199 58.3047C186.504 58.1016 186.75 57.8242 186.938 57.4727C187.133 57.1211 187.27 56.7148 187.348 56.2539C187.434 55.793 187.477 55.2969 187.477 54.7656ZM196.523 43V61H193.137V43H196.523ZM202.875 48.3203V61H199.488V48.3203H202.875ZM199.277 45.0156C199.277 44.5234 199.449 44.1172 199.793 43.7969C200.137 43.4766 200.598 43.3164 201.176 43.3164C201.746 43.3164 202.203 43.4766 202.547 43.7969C202.898 44.1172 203.074 44.5234 203.074 45.0156C203.074 45.5078 202.898 45.9141 202.547 46.2344C202.203 46.5547 201.746 46.7148 201.176 46.7148C200.598 46.7148 200.137 46.5547 199.793 46.2344C199.449 45.9141 199.277 45.5078 199.277 45.0156ZM211.875 48.3203V50.7109H204.492V48.3203H211.875ZM206.32 45.1914H209.695V57.1797C209.695 57.5469 209.742 57.8281 209.836 58.0234C209.938 58.2188 210.086 58.3555 210.281 58.4336C210.477 58.5039 210.723 58.5391 211.02 58.5391C211.23 58.5391 211.418 58.5312 211.582 58.5156C211.754 58.4922 211.898 58.4688 212.016 58.4453L212.027 60.9297C211.738 61.0234 211.426 61.0977 211.09 61.1523C210.754 61.207 210.383 61.2344 209.977 61.2344C209.234 61.2344 208.586 61.1133 208.031 60.8711C207.484 60.6211 207.062 60.2227 206.766 59.6758C206.469 59.1289 206.32 58.4102 206.32 57.5195V45.1914Z" fill="#888888"/>
<path d="M113.18 109.93C113.18 109.398 113.102 108.922 112.945 108.5C112.789 108.062 112.5 107.656 112.078 107.281C111.656 106.906 111.047 106.531 110.25 106.156C109.469 105.766 108.438 105.359 107.156 104.938C105.656 104.438 104.211 103.875 102.82 103.25C101.43 102.609 100.188 101.867 99.0938 101.023C98 100.164 97.1328 99.1641 96.4922 98.0234C95.8516 96.8672 95.5312 95.5234 95.5312 93.9922C95.5312 92.5234 95.8594 91.2031 96.5156 90.0312C97.1719 88.8438 98.0859 87.8359 99.2578 87.0078C100.445 86.1641 101.836 85.5234 103.43 85.0859C105.023 84.6328 106.766 84.4062 108.656 84.4062C111.156 84.4062 113.359 84.8438 115.266 85.7188C117.188 86.5781 118.688 87.8047 119.766 89.3984C120.859 90.9766 121.406 92.8438 121.406 95H113.227C113.227 94.1406 113.047 93.3828 112.688 92.7266C112.344 92.0703 111.82 91.5547 111.117 91.1797C110.414 90.8047 109.531 90.6172 108.469 90.6172C107.438 90.6172 106.57 90.7734 105.867 91.0859C105.164 91.3984 104.633 91.8203 104.273 92.3516C103.914 92.8672 103.734 93.4375 103.734 94.0625C103.734 94.5781 103.875 95.0469 104.156 95.4688C104.453 95.875 104.867 96.2578 105.398 96.6172C105.945 96.9766 106.602 97.3203 107.367 97.6484C108.148 97.9766 109.023 98.2969 109.992 98.6094C111.805 99.1875 113.414 99.8359 114.82 100.555C116.242 101.258 117.438 102.062 118.406 102.969C119.391 103.859 120.133 104.875 120.633 106.016C121.148 107.156 121.406 108.445 121.406 109.883C121.406 111.414 121.109 112.773 120.516 113.961C119.922 115.148 119.07 116.156 117.961 116.984C116.852 117.797 115.523 118.414 113.977 118.836C112.43 119.258 110.703 119.469 108.797 119.469C107.047 119.469 105.32 119.25 103.617 118.812C101.93 118.359 100.398 117.672 99.0234 116.75C97.6484 115.812 96.5469 114.617 95.7188 113.164C94.9062 111.695 94.5 109.953 94.5 107.938H102.75C102.75 108.938 102.883 109.781 103.148 110.469C103.414 111.156 103.805 111.711 104.32 112.133C104.836 112.539 105.469 112.836 106.219 113.023C106.969 113.195 107.828 113.281 108.797 113.281C109.844 113.281 110.688 113.133 111.328 112.836C111.969 112.523 112.438 112.117 112.734 111.617C113.031 111.102 113.18 110.539 113.18 109.93ZM133.031 99.0547V119H125.133V93.6406H132.539L133.031 99.0547ZM132.094 105.453L130.242 105.5C130.242 103.562 130.477 101.836 130.945 100.32C131.414 98.7891 132.078 97.4922 132.938 96.4297C133.797 95.3672 134.82 94.5625 136.008 94.0156C137.211 93.4531 138.547 93.1719 140.016 93.1719C141.188 93.1719 142.258 93.3438 143.227 93.6875C144.211 94.0312 145.055 94.5859 145.758 95.3516C146.477 96.1172 147.023 97.1328 147.398 98.3984C147.789 99.6484 147.984 101.195 147.984 103.039V119H140.039V103.016C140.039 102 139.898 101.227 139.617 100.695C139.336 100.148 138.93 99.7734 138.398 99.5703C137.867 99.3672 137.219 99.2656 136.453 99.2656C135.641 99.2656 134.953 99.4219 134.391 99.7344C133.828 100.047 133.375 100.484 133.031 101.047C132.703 101.594 132.461 102.242 132.305 102.992C132.164 103.742 132.094 104.562 132.094 105.453ZM165.539 112.625V102.172C165.539 101.453 165.438 100.836 165.234 100.32C165.031 99.8047 164.711 99.4062 164.273 99.125C163.836 98.8281 163.25 98.6797 162.516 98.6797C161.922 98.6797 161.414 98.7812 160.992 98.9844C160.57 99.1875 160.25 99.4922 160.031 99.8984C159.812 100.305 159.703 100.82 159.703 101.445H151.805C151.805 100.273 152.062 99.1875 152.578 98.1875C153.109 97.1719 153.859 96.2891 154.828 95.5391C155.812 94.7891 156.984 94.2109 158.344 93.8047C159.719 93.3828 161.25 93.1719 162.938 93.1719C164.953 93.1719 166.75 93.5078 168.328 94.1797C169.922 94.8516 171.18 95.8594 172.102 97.2031C173.023 98.5312 173.484 100.203 173.484 102.219V112.602C173.484 114.258 173.578 115.516 173.766 116.375C173.953 117.219 174.219 117.961 174.562 118.602V119H166.641C166.266 118.219 165.984 117.266 165.797 116.141C165.625 115 165.539 113.828 165.539 112.625ZM166.5 103.508L166.547 107.727H163.055C162.32 107.727 161.695 107.828 161.18 108.031C160.68 108.234 160.273 108.516 159.961 108.875C159.664 109.219 159.445 109.609 159.305 110.047C159.18 110.484 159.117 110.945 159.117 111.43C159.117 111.898 159.227 112.32 159.445 112.695C159.68 113.055 159.992 113.336 160.383 113.539C160.773 113.742 161.211 113.844 161.695 113.844C162.57 113.844 163.312 113.68 163.922 113.352C164.547 113.008 165.023 112.594 165.352 112.109C165.68 111.625 165.844 111.172 165.844 110.75L167.578 113.984C167.266 114.609 166.906 115.242 166.5 115.883C166.109 116.523 165.617 117.117 165.023 117.664C164.445 118.195 163.734 118.633 162.891 118.977C162.047 119.305 161.023 119.469 159.82 119.469C158.258 119.469 156.82 119.148 155.508 118.508C154.211 117.867 153.172 116.977 152.391 115.836C151.609 114.68 151.219 113.352 151.219 111.852C151.219 110.539 151.453 109.367 151.922 108.336C152.406 107.305 153.133 106.43 154.102 105.711C155.07 104.992 156.305 104.445 157.805 104.07C159.305 103.695 161.07 103.508 163.102 103.508H166.5ZM185.836 98.5156V128.75H177.938V93.6406H185.297L185.836 98.5156ZM201.398 106.016V106.508C201.398 108.352 201.188 110.062 200.766 111.641C200.344 113.219 199.719 114.594 198.891 115.766C198.062 116.938 197.031 117.852 195.797 118.508C194.578 119.148 193.164 119.469 191.555 119.469C190.039 119.469 188.734 119.133 187.641 118.461C186.547 117.789 185.633 116.859 184.898 115.672C184.164 114.484 183.57 113.125 183.117 111.594C182.664 110.062 182.305 108.445 182.039 106.742V106.109C182.305 104.281 182.664 102.586 183.117 101.023C183.57 99.4453 184.164 98.0703 184.898 96.8984C185.633 95.7266 186.539 94.8125 187.617 94.1562C188.711 93.5 190.016 93.1719 191.531 93.1719C193.141 93.1719 194.555 93.4766 195.773 94.0859C197.008 94.6953 198.039 95.5703 198.867 96.7109C199.711 97.8359 200.344 99.1875 200.766 100.766C201.188 102.344 201.398 104.094 201.398 106.016ZM193.5 106.508V106.016C193.5 105.031 193.43 104.133 193.289 103.32C193.148 102.492 192.922 101.773 192.609 101.164C192.312 100.555 191.914 100.086 191.414 99.7578C190.914 99.4297 190.297 99.2656 189.562 99.2656C188.719 99.2656 188.008 99.3984 187.43 99.6641C186.867 99.9141 186.414 100.305 186.07 100.836C185.742 101.352 185.508 102 185.367 102.781C185.242 103.547 185.188 104.445 185.203 105.477V107.398C185.172 108.586 185.289 109.633 185.555 110.539C185.82 111.43 186.281 112.125 186.938 112.625C187.594 113.125 188.484 113.375 189.609 113.375C190.359 113.375 190.984 113.203 191.484 112.859C191.984 112.5 192.383 112.008 192.68 111.383C192.977 110.742 193.188 110.008 193.312 109.18C193.438 108.352 193.5 107.461 193.5 106.508ZM218.203 111.875C218.203 111.438 218.055 111.062 217.758 110.75C217.477 110.422 216.977 110.125 216.258 109.859C215.539 109.578 214.531 109.297 213.234 109.016C212 108.75 210.836 108.398 209.742 107.961C208.664 107.523 207.719 106.992 206.906 106.367C206.094 105.742 205.453 105 204.984 104.141C204.531 103.281 204.305 102.297 204.305 101.188C204.305 100.109 204.531 99.0938 204.984 98.1406C205.453 97.1719 206.133 96.3203 207.023 95.5859C207.93 94.8359 209.031 94.25 210.328 93.8281C211.625 93.3906 213.102 93.1719 214.758 93.1719C217.039 93.1719 219.008 93.5234 220.664 94.2266C222.32 94.9141 223.594 95.8828 224.484 97.1328C225.391 98.3672 225.844 99.7969 225.844 101.422H217.945C217.945 100.781 217.836 100.234 217.617 99.7812C217.414 99.3281 217.078 98.9844 216.609 98.75C216.141 98.5 215.516 98.375 214.734 98.375C214.188 98.375 213.688 98.4766 213.234 98.6797C212.797 98.8828 212.445 99.1641 212.18 99.5234C211.914 99.8828 211.781 100.305 211.781 100.789C211.781 101.133 211.859 101.445 212.016 101.727C212.188 101.992 212.445 102.242 212.789 102.477C213.133 102.695 213.57 102.898 214.102 103.086C214.633 103.258 215.273 103.414 216.023 103.555C217.727 103.867 219.32 104.312 220.805 104.891C222.289 105.469 223.492 106.289 224.414 107.352C225.352 108.414 225.82 109.844 225.82 111.641C225.82 112.766 225.562 113.805 225.047 114.758C224.531 115.695 223.789 116.523 222.82 117.242C221.852 117.945 220.688 118.492 219.328 118.883C217.969 119.273 216.438 119.469 214.734 119.469C212.312 119.469 210.266 119.039 208.594 118.18C206.922 117.305 205.656 116.211 204.797 114.898C203.953 113.57 203.531 112.227 203.531 110.867H210.891C210.922 111.648 211.109 112.289 211.453 112.789C211.812 113.289 212.289 113.656 212.883 113.891C213.477 114.125 214.164 114.242 214.945 114.242C215.664 114.242 216.258 114.141 216.727 113.938C217.211 113.734 217.578 113.461 217.828 113.117C218.078 112.758 218.203 112.344 218.203 111.875ZM237.258 83V119H229.359V83H237.258ZM236.32 105.453L234.469 105.5C234.469 103.719 234.688 102.078 235.125 100.578C235.562 99.0781 236.188 97.7734 237 96.6641C237.812 95.5547 238.789 94.6953 239.93 94.0859C241.07 93.4766 242.336 93.1719 243.727 93.1719C244.977 93.1719 246.117 93.3516 247.148 93.7109C248.195 94.0703 249.094 94.6484 249.844 95.4453C250.609 96.2422 251.195 97.2812 251.602 98.5625C252.023 99.8438 252.234 101.406 252.234 103.25V119H244.289V103.203C244.289 102.172 244.141 101.375 243.844 100.812C243.562 100.234 243.156 99.8359 242.625 99.6172C242.094 99.3828 241.445 99.2656 240.68 99.2656C239.758 99.2656 239.008 99.4219 238.43 99.7344C237.852 100.047 237.406 100.484 237.094 101.047C236.797 101.594 236.594 102.242 236.484 102.992C236.375 103.742 236.32 104.562 236.32 105.453ZM255.633 106.578V106.086C255.633 104.227 255.898 102.516 256.43 100.953C256.961 99.375 257.742 98.0078 258.773 96.8516C259.805 95.6953 261.078 94.7969 262.594 94.1562C264.109 93.5 265.859 93.1719 267.844 93.1719C269.844 93.1719 271.602 93.5 273.117 94.1562C274.648 94.7969 275.93 95.6953 276.961 96.8516C277.992 98.0078 278.773 99.375 279.305 100.953C279.836 102.516 280.102 104.227 280.102 106.086V106.578C280.102 108.422 279.836 110.133 279.305 111.711C278.773 113.273 277.992 114.641 276.961 115.812C275.93 116.969 274.656 117.867 273.141 118.508C271.625 119.148 269.875 119.469 267.891 119.469C265.906 119.469 264.148 119.148 262.617 118.508C261.086 117.867 259.805 116.969 258.773 115.812C257.742 114.641 256.961 113.273 256.43 111.711C255.898 110.133 255.633 108.422 255.633 106.578ZM263.531 106.086V106.578C263.531 107.531 263.602 108.422 263.742 109.25C263.883 110.078 264.117 110.805 264.445 111.43C264.773 112.039 265.219 112.516 265.781 112.859C266.344 113.203 267.047 113.375 267.891 113.375C268.719 113.375 269.406 113.203 269.953 112.859C270.516 112.516 270.961 112.039 271.289 111.43C271.617 110.805 271.852 110.078 271.992 109.25C272.133 108.422 272.203 107.531 272.203 106.578V106.086C272.203 105.164 272.133 104.297 271.992 103.484C271.852 102.656 271.617 101.93 271.289 101.305C270.961 100.664 270.516 100.164 269.953 99.8047C269.391 99.4453 268.688 99.2656 267.844 99.2656C267.016 99.2656 266.32 99.4453 265.758 99.8047C265.211 100.164 264.773 100.664 264.445 101.305C264.117 101.93 263.883 102.656 263.742 103.484C263.602 104.297 263.531 105.164 263.531 106.086ZM296.977 93.6406V99.125H281.695V93.6406H296.977ZM284.906 87.3359H292.805V110.727C292.805 111.398 292.883 111.922 293.039 112.297C293.195 112.656 293.461 112.914 293.836 113.07C294.227 113.211 294.742 113.281 295.383 113.281C295.836 113.281 296.211 113.273 296.508 113.258C296.805 113.227 297.086 113.188 297.352 113.141V118.789C296.68 119.008 295.977 119.172 295.242 119.281C294.508 119.406 293.727 119.469 292.898 119.469C291.211 119.469 289.766 119.203 288.562 118.672C287.375 118.141 286.469 117.305 285.844 116.164C285.219 115.023 284.906 113.539 284.906 111.711V87.3359ZM313.406 111.875C313.406 111.438 313.258 111.062 312.961 110.75C312.68 110.422 312.18 110.125 311.461 109.859C310.742 109.578 309.734 109.297 308.438 109.016C307.203 108.75 306.039 108.398 304.945 107.961C303.867 107.523 302.922 106.992 302.109 106.367C301.297 105.742 300.656 105 300.188 104.141C299.734 103.281 299.508 102.297 299.508 101.188C299.508 100.109 299.734 99.0938 300.188 98.1406C300.656 97.1719 301.336 96.3203 302.227 95.5859C303.133 94.8359 304.234 94.25 305.531 93.8281C306.828 93.3906 308.305 93.1719 309.961 93.1719C312.242 93.1719 314.211 93.5234 315.867 94.2266C317.523 94.9141 318.797 95.8828 319.688 97.1328C320.594 98.3672 321.047 99.7969 321.047 101.422H313.148C313.148 100.781 313.039 100.234 312.82 99.7812C312.617 99.3281 312.281 98.9844 311.812 98.75C311.344 98.5 310.719 98.375 309.938 98.375C309.391 98.375 308.891 98.4766 308.438 98.6797C308 98.8828 307.648 99.1641 307.383 99.5234C307.117 99.8828 306.984 100.305 306.984 100.789C306.984 101.133 307.062 101.445 307.219 101.727C307.391 101.992 307.648 102.242 307.992 102.477C308.336 102.695 308.773 102.898 309.305 103.086C309.836 103.258 310.477 103.414 311.227 103.555C312.93 103.867 314.523 104.312 316.008 104.891C317.492 105.469 318.695 106.289 319.617 107.352C320.555 108.414 321.023 109.844 321.023 111.641C321.023 112.766 320.766 113.805 320.25 114.758C319.734 115.695 318.992 116.523 318.023 117.242C317.055 117.945 315.891 118.492 314.531 118.883C313.172 119.273 311.641 119.469 309.938 119.469C307.516 119.469 305.469 119.039 303.797 118.18C302.125 117.305 300.859 116.211 300 114.898C299.156 113.57 298.734 112.227 298.734 110.867H306.094C306.125 111.648 306.312 112.289 306.656 112.789C307.016 113.289 307.492 113.656 308.086 113.891C308.68 114.125 309.367 114.242 310.148 114.242C310.867 114.242 311.461 114.141 311.93 113.938C312.414 113.734 312.781 113.461 313.031 113.117C313.281 112.758 313.406 112.344 313.406 111.875Z" fill="black"/>
<path d="M1134 0H1348C1356.28 0 1363 6.71573 1363 15V148C1363 156.284 1356.28 163 1348 163H1134V0Z" fill="#F7941E"/>
<path fill-rule="evenodd" clip-rule="evenodd" d="M1202.75 46.5018C1202.75 45.3973 1203.65 44.5018 1204.75 44.5018H1292.25C1293.35 44.5018 1294.25 45.3973 1294.25 46.5018V116.498C1294.25 117.603 1293.35 118.498 1292.25 118.498H1204.75C1203.65 118.498 1202.75 117.603 1202.75 116.498V46.5018ZM1206.75 48.5018V52.9963H1290.25V48.5018H1206.75ZM1290.25 56.9963H1235.19V114.498H1290.25V56.9963ZM1231.19 114.498V56.9963H1206.75V114.498H1231.19Z" fill="white"/>
<path fill-rule="evenodd" clip-rule="evenodd" d="M1209.72 62.3022C1209.72 61.1976 1210.62 60.3022 1211.72 60.3022H1225.72C1226.83 60.3022 1227.72 61.1976 1227.72 62.3022V81.6974C1227.72 82.802 1226.83 83.6974 1225.72 83.6974H1211.72C1210.62 83.6974 1209.72 82.802 1209.72 81.6974V62.3022ZM1213.72 64.3022V79.6974H1223.72V64.3022H1213.72ZM1239.33 63.1982C1239.33 62.0936 1240.22 61.1982 1241.33 61.1982H1284.25C1285.36 61.1982 1286.25 62.0936 1286.25 63.1982V109.407C1286.25 110.511 1285.36 111.407 1284.25 111.407H1241.33C1240.22 111.407 1239.33 110.511 1239.33 109.407V63.1982ZM1243.33 65.1982V107.407H1282.25V65.1982H1243.33ZM1209.56 93.4381C1209.56 92.3336 1210.46 91.4381 1211.56 91.4381H1220.48C1221.59 91.4381 1222.48 92.3336 1222.48 93.4381C1222.48 94.5427 1221.59 95.4381 1220.48 95.4381H1211.56C1210.46 95.4381 1209.56 94.5427 1209.56 93.4381ZM1209.56 100.438C1209.56 99.3335 1210.46 98.4381 1211.56 98.4381H1226.1C1227.21 98.4381 1228.1 99.3335 1228.1 100.438C1228.1 101.543 1227.21 102.438 1226.1 102.438H1211.56C1210.46 102.438 1209.56 101.543 1209.56 100.438ZM1209.56 107.438C1209.56 106.334 1210.46 105.438 1211.56 105.438H1220.48C1221.59 105.438 1222.48 106.334 1222.48 107.438C1222.48 108.543 1221.59 109.438 1220.48 109.438H1211.56C1210.46 109.438 1209.56 108.543 1209.56 107.438Z" fill="white"/>
</svg>
